<svg xmlns="http://www.w3.org/2000/svg" viewBox="0 0 1600 900" width="1600" height="900" role="img" aria-label="jev-certify: certified decision thresholds for Jev"><rect width="1600" height="900" fill="#0A0F1C"/><circle cx="1320" cy="-60" r="440" fill="#60A5FA" opacity="0.07"/><circle cx="180" cy="960" r="420" fill="#4ADE80" opacity="0.06"/><text x="80" y="84" font-family="'Segoe UI', Roboto, Helvetica, Arial, sans-serif" font-size="20" font-weight="600" fill="#4ADE80" text-anchor="start" letter-spacing="2.2">JEV 1.13  ·  TYPESAFE SYSTEM ONE</text><text x="1520" y="84" font-family="'Segoe UI', Roboto, Helvetica, Arial, sans-serif" font-size="20" font-weight="500" fill="#64748B" text-anchor="end" letter-spacing="1.6">2,412 DECISIONS  ·  $0.23  ·  HUMAN LABELS</text><text x="80" y="232" font-family="'Segoe UI', Roboto, Helvetica, Arial, sans-serif" font-size="62" font-weight="700" fill="#F8FAFC" text-anchor="start">Jev gives you a calibrated probability.</text><text x="80" y="306" font-family="'Segoe UI', Roboto, Helvetica, Arial, sans-serif" font-size="62" font-weight="700" fill="#60A5FA" text-anchor="start">This turns it into a certificate.</text><text x="80" y="366" font-family="'Segoe UI', Roboto, Helvetica, Arial, sans-serif" font-size="26" font-weight="400" fill="#94A3B8" text-anchor="start">Conformal risk control + prediction-powered inference, measured on a 150-way intent router.</text><rect x="80.0" y="424" width="452.0" height="216" fill="#121A2B" stroke="#1E293B" rx="16"/><rect x="80.0" y="424" width="4" height="216" fill="#4ADE80" rx="2"/><text x="114" y="502" font-family="'Segoe UI', Roboto, Helvetica, Arial, sans-serif" font-size="58" font-weight="700" fill="#4ADE80" text-anchor="start">84.75%</text><text x="114" y="542" font-family="'Segoe UI', Roboto, Helvetica, Arial, sans-serif" font-size="21" font-weight="600" fill="#F8FAFC" text-anchor="start">of traffic auto-routed at a 5% risk target</text><text x="114" y="572" font-family="'Segoe UI', Roboto, Helvetica, Arial, sans-serif" font-size="17" font-weight="400" fill="#94A3B8" text-anchor="start">2.65% wrong among routed · certificate holds</text><text x="114" y="596" font-family="'Segoe UI', Roboto, Helvetica, Arial, sans-serif" font-size="17" font-weight="400" fill="#94A3B8" text-anchor="start">(0.0225 measured vs 0.0499 certified)</text><rect x="574.0" y="424" width="452.0" height="216" fill="#121A2B" stroke="#1E293B" rx="16"/><rect x="574.0" y="424" width="4" height="216" fill="#FBBF24" rx="2"/><text x="608" y="502" font-family="'Segoe UI', Roboto, Helvetica, Arial, sans-serif" font-size="58" font-weight="700" fill="#FBBF24" text-anchor="start">1.95%</text><text x="608" y="542" font-family="'Segoe UI', Roboto, Helvetica, Arial, sans-serif" font-size="21" font-weight="600" fill="#F8FAFC" text-anchor="start">is the floor on risk for this model</text><text x="608" y="572" font-family="'Segoe UI', Roboto, Helvetica, Arial, sans-serif" font-size="17" font-weight="400" fill="#94A3B8" text-anchor="start">α = 1% is unreachable: 56.4% of answers come</text><text x="608" y="596" font-family="'Segoe UI', Roboto, Helvetica, Arial, sans-serif" font-size="17" font-weight="400" fill="#94A3B8" text-anchor="start">back exactly 1.0, and 9 of those are wrong</text><rect x="1068.0" y="424" width="452.0" height="216" fill="#121A2B" stroke="#1E293B" rx="16"/><rect x="1068.0" y="424" width="4" height="216" fill="#60A5FA" rx="2"/><text x="1102" y="502" font-family="'Segoe UI', Roboto, Helvetica, Arial, sans-serif" font-size="58" font-weight="700" fill="#60A5FA" text-anchor="start">40 / 254</text><text x="1102" y="542" font-family="'Segoe UI', Roboto, Helvetica, Arial, sans-serif" font-size="21" font-weight="600" fill="#F8FAFC" text-anchor="start">hand labels to audit it</text><text x="1102" y="572" font-family="'Segoe UI', Roboto, Helvetica, Arial, sans-serif" font-size="17" font-weight="400" fill="#94A3B8" text-anchor="start">40 labels with Jev's estimates do what 254</text><text x="1102" y="596" font-family="'Segoe UI', Roboto, Helvetica, Arial, sans-serif" font-size="17" font-weight="400" fill="#94A3B8" text-anchor="start">labels do without — a 62% narrower interval</text><rect x="80" y="672" width="720" height="176" fill="#121A2B" stroke="#1E293B" rx="14"/><line x1="142" y1="802.0" x2="770" y2="802.0" stroke="#1B2438" stroke-width="1"/><text x="134" y="807" font-family="'Segoe UI', Roboto, Helvetica, Arial, sans-serif" font-size="15" font-weight="400" fill="#64748B" text-anchor="end">0.002</text><line x1="142" y1="774.0" x2="770" y2="774.0" stroke="#1B2438" stroke-width="1"/><text x="134" y="779" font-family="'Segoe UI', Roboto, Helvetica, Arial, sans-serif" font-size="15" font-weight="400" fill="#64748B" text-anchor="end">0.01</text><line x1="142" y1="746.0" x2="770" y2="746.0" stroke="#1B2438" stroke-width="1"/><text x="134" y="751" font-family="'Segoe UI', Roboto, Helvetica, Arial, sans-serif" font-size="15" font-weight="400" fill="#64748B" text-anchor="end">0.05</text><text x="212" y="840" font-family="'Segoe UI', Roboto, Helvetica, Arial, sans-serif" font-size="15" font-weight="400" fill="#64748B" text-anchor="middle">0.6</text><text x="491" y="840" font-family="'Segoe UI', Roboto, Helvetica, Arial, sans-serif" font-size="15" font-weight="400" fill="#64748B" text-anchor="middle">0.8</text><text x="770" y="840" font-family="'Segoe UI', Roboto, Helvetica, Arial, sans-serif" font-size="15" font-weight="400" fill="#64748B" text-anchor="middle">1</text><path d="M770.0,740.2 L770.0,740.2 L770.0,740.2 L770.0,740.2 L770.0,740.2 L770.0,740.2 L770.0,740.2 L770.0,740.2 L770.0,740.2 L770.0,740.2 L770.0,740.2 L770.0,740.2 L770.0,740.2 L770.0,740.2 L770.0,740.2 L770.0,740.2 L770.0,740.2 L770.0,740.2 L770.0,740.2 L770.0,740.2 L770.0,740.2 L770.0,740.2 L770.0,740.2 L770.0,740.2 L770.0,740.2 L770.0,740.2 L770.0,740.2 L770.0,740.2 L770.0,740.2 L770.0,740.2 L770.0,740.2 L770.0,740.2 L770.0,740.2 L770.0,740.2 L770.0,740.2 L770.0,740.2 L770.0,740.2 L770.0,740.2 L770.0,740.2 L770.0,740.2 L766.5,740.8 L766.5,740.8 L763.0,740.8 L763.0,740.8 L763.0,740.8 L763.0,740.8 L756.0,741.5 L756.0,741.5 L756.0,741.5 L752.6,742.2 L749.1,742.9 L745.6,743.6 L745.6,743.6 L731.6,745.2 L721.2,746.0 L714.2,746.9 L710.7,746.9 L710.7,746.9 L707.2,746.9 L707.2,746.9 L696.7,748.9 L693.2,749.9 L689.8,749.9 L686.3,749.9 L686.3,749.9 L672.3,752.2 L665.3,752.2 L661.8,752.2 L658.4,752.2 L651.4,752.2 L647.9,752.2 L647.9,752.2 L647.9,752.2 L644.4,752.2 L637.4,753.5 L633.9,753.5 L630.4,754.9 L616.5,754.9 L613.0,754.9 L602.5,754.9 L602.5,754.9 L585.1,754.9 L567.6,758.1 L557.2,759.9 L557.2,759.9 L550.2,759.9 L550.2,759.9 L543.2,762.0 L536.2,764.3 L536.2,764.3 L522.3,764.3 L515.3,767.0 L501.4,770.1 L476.9,774.0 L466.5,774.0 L459.5,774.0 L445.5,774.0 L424.6,779.0 L393.2,786.0 L358.3,786.0 L250.2,798.1" fill="none" stroke="#60A5FA" stroke-width="2.6"/><circle cx="393.2" cy="786.0" r="6" fill="#4ADE80" stroke="#0A0F1C" stroke-width="2"/><circle cx="557.2" cy="759.9" r="13" fill="#4ADE80" opacity="0.22"/><circle cx="557.2" cy="759.9" r="6" fill="#4ADE80" stroke="#0A0F1C" stroke-width="2"/><circle cx="665.3" cy="752.2" r="6" fill="#4ADE80" stroke="#0A0F1C" stroke-width="2"/><text x="106" y="702" font-family="'Segoe UI', Roboto, Helvetica, Arial, sans-serif" font-size="16" font-weight="400" fill="#94A3B8" text-anchor="start">measured risk vs. traffic routed</text><text x="106" y="722" font-family="'Segoe UI', Roboto, Helvetica, Arial, sans-serif" font-size="15" font-weight="400" fill="#4ADE80" text-anchor="start" opacity="0.9">green dot = certified threshold (α = 5%)</text><text x="856" y="736" font-family="'Segoe UI', Roboto, Helvetica, Arial, sans-serif" font-size="30" font-weight="700" fill="#F8FAFC" text-anchor="start">github.com/nikkoxgonzales/jev-certify</text><text x="856" y="776" font-family="'Segoe UI', Roboto, Helvetica, Arial, sans-serif" font-size="20" font-weight="400" fill="#94A3B8" text-anchor="start">$0.1455 per 1k queries · p50 0.37s · MIT</text><text x="856" y="812" font-family="'Segoe UI', Roboto, Helvetica, Arial, sans-serif" font-size="20" font-weight="600" fill="#FBBF24" text-anchor="start">It also measures where the guarantee breaks:</text><text x="856" y="838" font-family="'Segoe UI', Roboto, Helvetica, Arial, sans-serif" font-size="18" font-weight="400" fill="#64748B" text-anchor="start">prevalence shift 3.6× over the bound, and 1.0000 loss/query on shifted traffic.</text></svg>
